<?xml version="1.0" encoding="utf-8"?>
<!-- Generator: Adobe Illustrator 16.0.4, SVG Export Plug-In . SVG Version: 6.00 Build 0)  -->
<!DOCTYPE svg PUBLIC "-//W3C//DTD SVG 1.1//EN" "http://www.w3.org/Graphics/SVG/1.1/DTD/svg11.dtd">
<svg version="1.1" xmlns="http://www.w3.org/2000/svg" xmlns:xlink="http://www.w3.org/1999/xlink" x="0px" y="0px" width="400px"
	 height="248px" viewBox="0 0 400 248" style="enable-background:new 0 0 400 248;" xml:space="preserve">
<pattern  x="-312" y="-388" width="141.732" height="6" patternUnits="userSpaceOnUse" id="New_Pattern_Swatch_6" viewBox="0 -6 141.732 6" style="overflow:visible;">
	<g>
		<polygon style="fill:none;" points="0,0 141.732,0 141.732,-6 0,-6 		"/>
		<polygon style="fill:#14A24A;" points="141.732,-5 0,-5 0,-6 141.732,-6 		"/>
		<polygon style="fill:#14A24A;" points="141.732,-2 0,-2 0,-3 141.732,-3 		"/>
		<polygon style="fill:#FFFFFF;" points="141.732,-4 0,-4 0,-5 141.732,-5 		"/>
		<polygon style="fill:#FFFFFF;" points="141.732,-3 0,-3 0,-4 141.732,-4 		"/>
		<polygon style="fill:#FFFFFF;" points="141.732,-1 0,-1 0,-2 141.732,-2 		"/>
		<polygon style="fill:#FFFFFF;" points="141.732,0 0,0 0,-1 141.732,-1 		"/>
	</g>
</pattern>
<g id="Background">
	<g>
		<path id="Kashmir_5_" style="fill:url(#New_Pattern_Swatch_6);" d="M282.172,72.271c0.486,5.418,1.648,5.086,2.566,9.908
			c-3.668,1.799-4.512,2.695-6.416,6.193c-1.283-0.414-2.564-0.826-3.848-1.24c0-1.238,0-2.477,0-3.715
			c-4.094,0.627-3.748,1.08-6.416,2.477c-0.479-2.57-0.309-2.383-1.281-3.715c-1.744,1.562-2.271,1.691-5.135,2.477
			c-1.213-4.201-0.492-3.852-5.131-4.953c-2.41,2.203-1.018,2.289-3.848,1.238c-4.611-1.184-4.857-2.498-7.699-4.955
			c-1.512,0.996-2.158,0.957-5.131,1.24c-1.678,4.598-4.414,4.652-6.416,8.668c1.031,1.463,0.994,2.082,1.283,4.953
			c-3.578,2.279-2.08,4.848-7.436,5.857c-2.207-1.844-19.055-1.49-22.072-21.709c-6.982-24.166,1.57-24.846,8.682-25.354
			c20.502,12.875,24.273-13.436,38.818-15.057c1.311,0.996,5.453,0.971,7.668,1.77c1.281,3.717,2.566,7.432,3.85,11.146
			c5.443,0.508,7.336,0.43,11.547,3.717c-5.316,4.715-4.588,8.779-2.566,17.338C277.711,70.168,276.256,71.455,282.172,72.271z"/>
		<path style="fill-rule:evenodd;clip-rule:evenodd;fill:#14A24A;" d="M390,152.564l-12.168,34.369
			c-5.146,14.25-9.084,21.342-14.543,26.205l-0.078,0.078c-5.42,4.697-11.125,6.281-14.963,6.787l-7.785,1.016l-4.092-16.486
			h-37.994v-2.344c-3.623,2.07-7.695,3.115-11.75,3.115h-0.273v13.156H258.08v-13.928h-11.584c-1.934,0.508-3.994,0.771-6.135,0.771
			c-5.293,0-10.039-1.904-13.574-5.078v4.307H206.92c-1.338,3.271-3.271,6.008-5.791,8.254l-0.146,0.127
			c-4.912,4.189-11.545,6.318-19.689,6.318c-6.359,0-12.453-1.396-16.723-3.818l-5.869-3.33l3.252-12.453
			c-3.525,2.734-7.705,4.453-12.004,5.217c0.02,0.057,0.031,0.117,0.041,0.174c3.418,0.078,5.117,0.471,7.178,1.203
			c0.43,10.869,4.99,14.66,5.977,23.928c-3.672,1.064-3.535,1.895-8.369,2.393c-0.4-0.801-0.801-1.602-1.201-2.393
			c-4.416-1.553-4.504,2.949-5.979,3.586c0,0-15.51-1.428-19.143-1.193v4.787c-11.594,0.459-9.455,3.428-20.346,1.191
			c-0.389-1.191-0.789-2.395-1.191-3.586c-2.227-2.988-3.24-7.236-3.594-11.963c-2.393-0.402-4.785-0.803-7.178-1.201
			c0.4-1.992,0.801-3.986,1.201-5.979c-3.496-2.207-3.479-3.281-9.572-3.594c-3.457,2.324-13.527,3.691-17.951,1.201
			c-0.391,1.191-0.791,2.393-1.191,3.584c-4.365,2.373-9.795-5.986-16.75-3.584c-10.715,3.691-21.291,3.848-28.715,5.977
			c-1.133-7.812-1.836-17.141,2.393-22.727c3.691-3.516,8.908-7.336,19.143-7.18c0.4-3.193,0.801-6.387,1.193-9.572H43.5
			c-1.277,0.9-1.121,0.715-3.584,1.193c-0.664-1.914-0.957-2.871-1.201-5.979c0.322-0.84,0.098-7.666,0-11.963
			C23.264,159.754,17.266,145.807,10,134.438c1.299-1.096,0.107,0.088,1.201-1.201c24.262,10.088,55.447,9.375,80.158,0
			c-1.602-5.432-0.51-11.105,0-17.943c4.395-1.25,6.953-4.238,9.57-7.178c3.879,2.1,4.551,2.158,9.572,1.191
			c-0.391-1.592-0.791-3.193-1.191-4.785c5.967-0.734,6.641-2.893,10.762-4.787c0.723,0.43,8.43,2.842,10.773,3.594
			c1.416-2.188,2.619-3.35,4.787-4.785c-2.268-6.279,0.615-12.297,4.785-15.559c-1.357-1.846-1.301-1.006-2.393-3.584
			c5.264-1.67,9.111-1.904,11.965-5.988c-4.221-3.193-6.408-7.158-5.988-11.963c5.588,0.4,11.174,0.801,16.75,1.201
			c0.674-1.926,0.967-2.883,1.201-5.988c-1.943-1.611-1.338-0.762-2.393-3.584c3.859-2.568,6.223-6.514,9.572-9.572
			c-0.705-7.188-3.428-10.264-5.988-16.75c4.934-3.33,10.217-9.316,15.559-11.965c6.77-3.359,19.086-2.451,26.322-1.201
			c3.135,0.537,6.68-4.307,8.371-4.785c4.355-1.221,15.539,5.195,20.344,7.18c1.377,3.262,2.246,9.277,3.584,13.166
			c5.734,1.6,9.094,0.643,11.965,7.178c-7.961,5.117-14.436,13.85-21.537,16.75c-9.6,3.916-17.297-7.639-22.727,1.191
			c-0.967,1.221-0.43,0.332-1.191,2.393c3.027,0.088,4.443,0.146,5.979,1.201h-3.596v3.586c2.686,0.703,3.186,0.898,4.787,2.393
			c-1.74,1.377-2.629,2.393-4.787,3.594c2.598,5.137-0.293,6.906,1.201,10.764c0.918,2.383,2.316-0.693,3.586,4.785
			c3.643-0.088,3.291-0.898,4.795,0c1.055,1.465-1.826,2.559,0,4.785c3.242,3.986,8.389-3.408,10.762,7.18
			c-5.488,2.607-11.172,2.939-11.963,10.773c1.045,1.875,1.338,5.322,2.393,8.369c-1.562,1.064-11.359,9.641-11.965,10.773
			c-1.338,2.482,2.52,3.242,0,5.977c-1.855,2.012-6.699,1.357-8.381,3.596c-0.791,1.055-1.326,2.256-1.736,3.535h5.107
			c0,0,1.602-0.127,2.393-0.127c0.479,0,1.035,0.029,1.631,0.127h14.143v1.816c1.602-1.396,3.525-1.982,5.312-1.982
			c0.527,0,1.074,0.059,1.611,0.166h14.719v0.352c1.064-0.273,2.238-0.41,3.467-0.41c1.428,0,2.609,0.244,3.586,0.605l0.127-0.547
			h26.02c0.498-0.088,1.006-0.127,1.523-0.127c0.508,0,1.016,0.039,1.504,0.127h22.326v-0.947h28.266v14.797
			c2.297-0.127,4.621,0.117,6.857,0.742H390z"/>
		<g>
			<path style="fill:#FFFFFF;" d="M72.746,156.43c-0.43,0.225-1.107,0.369-1.969,0.369c-2.707,0-4.635-2.174-4.635-6.869
				c0-5.455,2.707-7.197,4.881-7.197c0.84,0,1.436,0.164,1.723,0.348l-0.348,1.334c-0.328-0.145-0.678-0.287-1.395-0.287
				c-1.477,0-3.199,1.436-3.199,5.658c0,4.225,1.559,5.619,3.238,5.619c0.596,0,1.129-0.143,1.457-0.307L72.746,156.43z"/>
			<path style="fill:#FFFFFF;" d="M81.791,149.662c0,5.189-1.783,7.178-3.998,7.178c-2.297,0-3.836-2.439-3.836-7.096
				c0-4.572,1.641-7.053,4.061-7.053C80.375,142.691,81.791,145.254,81.791,149.662z M75.598,149.766c0,2.85,0.555,5.68,2.297,5.68
				c1.785,0,2.256-3.014,2.256-5.721c0-2.584-0.471-5.639-2.275-5.639C76.152,144.086,75.598,146.955,75.598,149.766z"/>
			<path style="fill:#FFFFFF;" d="M86.264,156.676l-3.158-13.82h1.682l1.354,6.479c0.328,1.559,0.738,3.549,0.984,5.312h0.061
				c0.207-1.785,0.596-3.713,0.924-5.354l1.312-6.438h1.682l-3.219,13.82H86.264z"/>
			<path style="fill:#FFFFFF;" d="M98.199,150.113h-3.465v5.189h3.938v1.373h-5.518v-13.82h5.271v1.373h-3.691v4.553h3.465V150.113z
				"/>
			<path style="fill:#FFFFFF;" d="M100.928,143.061c0.678-0.186,1.498-0.268,2.275-0.268c1.375,0,2.4,0.287,3.117,0.984
				c0.678,0.697,0.965,1.621,0.965,2.707c0,1.764-0.82,2.912-2.215,3.547v0.041c1.025,0.309,1.559,1.293,1.867,3.098
				c0.307,1.906,0.594,3.074,0.777,3.506h-1.598c-0.207-0.41-0.473-1.723-0.738-3.424c-0.309-1.887-0.902-2.605-2.258-2.605h-0.613
				v6.029h-1.58V143.061z M102.508,149.438h0.656c1.516,0,2.521-1.107,2.521-2.768c0-1.6-0.656-2.584-2.357-2.605
				c-0.309,0-0.617,0.021-0.82,0.082V149.438z"/>
			<path style="fill:#FFFFFF;" d="M111.408,142.855v13.82h-1.578v-13.82H111.408z"/>
			<path style="fill:#FFFFFF;" d="M114.424,156.676v-13.82h1.496l2.543,6.479c0.574,1.477,1.293,3.322,1.764,4.82h0.041
				c-0.123-2.174-0.184-3.959-0.184-6.357v-4.941h1.414v13.82h-1.496l-2.625-6.645c-0.555-1.395-1.148-2.973-1.641-4.695h-0.041
				c0.123,1.846,0.164,3.609,0.164,6.562v4.777H114.424z"/>
			<path style="fill:#FFFFFF;" d="M131.281,156.326c-0.594,0.246-1.578,0.473-2.461,0.473c-1.209,0-2.336-0.328-3.26-1.354
				c-1.006-1.066-1.682-2.973-1.662-5.496c0.021-5.371,2.77-7.217,5.211-7.217c0.859,0,1.537,0.164,1.969,0.389l-0.35,1.354
				c-0.369-0.184-0.861-0.328-1.6-0.328c-1.723,0-3.59,1.375-3.59,5.66c0,4.266,1.621,5.639,3.281,5.639
				c0.535,0,0.842-0.102,0.965-0.164v-4.512H128v-1.312h3.281V156.326z"/>
			<path style="fill:#FFFFFF;" d="M142.707,150.113h-3.467v5.189h3.938v1.373h-5.516v-13.82h5.27v1.373h-3.691v4.553h3.467V150.113z
				"/>
			<path style="fill:#FFFFFF;" d="M147.875,156.676l-3.158-13.82h1.682l1.354,6.479c0.328,1.559,0.738,3.549,0.984,5.312h0.061
				c0.207-1.785,0.596-3.713,0.924-5.354l1.312-6.438h1.682l-3.219,13.82H147.875z"/>
			<path style="fill:#FFFFFF;" d="M159.812,150.113h-3.467v5.189h3.938v1.373h-5.516v-13.82h5.27v1.373h-3.691v4.553h3.467V150.113z
				"/>
			<path style="fill:#FFFFFF;" d="M162.539,143.061c0.678-0.186,1.498-0.268,2.277-0.268c1.375,0,2.398,0.287,3.117,0.984
				c0.676,0.697,0.965,1.621,0.965,2.707c0,1.764-0.82,2.912-2.215,3.547v0.041c1.023,0.309,1.559,1.293,1.865,3.098
				c0.307,1.906,0.596,3.074,0.779,3.506h-1.6c-0.205-0.41-0.471-1.723-0.738-3.424c-0.307-1.887-0.902-2.605-2.256-2.605h-0.615
				v6.029h-1.58V143.061z M164.119,149.438h0.656c1.518,0,2.521-1.107,2.521-2.768c0-1.6-0.656-2.584-2.357-2.605
				c-0.307,0-0.615,0.021-0.82,0.082V149.438z"/>
			<path style="fill:#FFFFFF;" d="M173.145,156.676v-5.844l-3.035-7.977h1.66l1.23,3.465c0.348,0.963,0.719,2.051,1.025,3.117h0.041
				c0.287-1.066,0.637-2.113,1.004-3.178l1.17-3.404h1.662l-3.18,7.914v5.906H173.145z"/>
			<path style="fill:#FFFFFF;" d="M185.039,142.855v13.82h-1.578v-13.82H185.039z"/>
			<path style="fill:#FFFFFF;" d="M188.055,156.676v-13.82h1.496l2.543,6.479c0.574,1.477,1.293,3.322,1.766,4.82h0.039
				c-0.121-2.174-0.184-3.959-0.184-6.357v-4.941h1.414v13.82h-1.496l-2.625-6.645c-0.555-1.395-1.148-2.973-1.641-4.695h-0.041
				c0.123,1.846,0.164,3.609,0.164,6.562v4.777H188.055z"/>
			<path style="fill:#FFFFFF;" d="M204.133,156.43c-0.43,0.225-1.105,0.369-1.967,0.369c-2.707,0-4.635-2.174-4.635-6.869
				c0-5.455,2.707-7.197,4.881-7.197c0.84,0,1.436,0.164,1.721,0.348l-0.348,1.334c-0.328-0.145-0.676-0.287-1.395-0.287
				c-1.477,0-3.199,1.436-3.199,5.658c0,4.225,1.559,5.619,3.24,5.619c0.596,0,1.129-0.143,1.457-0.307L204.133,156.43z"/>
			<path style="fill:#FFFFFF;" d="M207.848,142.855v5.926h3.875v-5.926h1.578v13.82h-1.578v-6.459h-3.875v6.459h-1.58v-13.82
				H207.848z"/>
			<path style="fill:#FFFFFF;" d="M227.27,149.662c0,5.189-1.785,7.178-4,7.178c-2.297,0-3.834-2.439-3.834-7.096
				c0-4.572,1.641-7.053,4.061-7.053C225.855,142.691,227.27,145.254,227.27,149.662z M221.076,149.766
				c0,2.85,0.553,5.68,2.297,5.68c1.783,0,2.256-3.014,2.256-5.721c0-2.584-0.473-5.639-2.277-5.639
				C221.629,144.086,221.076,146.955,221.076,149.766z"/>
			<path style="fill:#FFFFFF;" d="M229.67,142.855h5.271v1.373h-3.691v4.84h3.445v1.332h-3.445v6.275h-1.58V142.855z"/>
			<path style="fill:#FFFFFF;" d="M240.992,143.061c0.635-0.164,1.395-0.268,2.297-0.268c1.271,0,2.336,0.309,3.055,1.025
				c0.676,0.656,1.025,1.662,1.025,2.852c0,1.27-0.309,2.131-0.842,2.828c-0.758,1.025-2.029,1.539-3.26,1.539
				c-0.266,0-0.471,0-0.697-0.021v5.66h-1.578V143.061z M242.57,149.684c0.186,0.041,0.35,0.061,0.615,0.061
				c1.559,0,2.604-1.025,2.604-2.973c0-1.414-0.594-2.686-2.336-2.686c-0.369,0-0.678,0.041-0.883,0.102V149.684z"/>
			<path style="fill:#FFFFFF;" d="M250.18,152.533l-0.922,4.143h-1.518l3.158-13.82h1.742l3.076,13.82h-1.559l-0.924-4.143H250.18z
				 M253.029,151.262l-0.717-3.506c-0.205-0.984-0.389-2.133-0.553-3.158h-0.082c-0.164,1.047-0.369,2.236-0.555,3.158l-0.717,3.506
				H253.029z"/>
			<path style="fill:#FFFFFF;" d="M257.953,142.855h1.58v6.561h0.041c0.307-0.574,0.594-1.127,0.861-1.66l2.582-4.9h1.744
				l-3.385,5.904l3.467,7.916h-1.701l-2.83-6.664l-0.779,1.332v5.332h-1.58V142.855z"/>
			<path style="fill:#FFFFFF;" d="M268.332,142.855v13.82h-1.58v-13.82H268.332z"/>
			<path style="fill:#FFFFFF;" d="M271.039,154.852c0.473,0.307,1.293,0.553,1.99,0.553c1.436,0,2.297-0.943,2.297-2.338
				c0-1.271-0.738-2.051-1.826-2.871c-1.086-0.758-2.604-2.051-2.604-3.834c0-2.092,1.455-3.629,3.65-3.629
				c0.861,0,1.619,0.266,1.947,0.512l-0.389,1.354c-0.35-0.246-0.924-0.471-1.641-0.471c-1.354,0-1.99,1.025-1.99,1.969
				c0,1.373,0.719,1.906,2.031,2.85c1.66,1.168,2.398,2.439,2.398,3.979c0,2.379-1.682,3.875-3.875,3.875
				c-0.943,0-1.949-0.309-2.338-0.594L271.039,154.852z"/>
			<path style="fill:#FFFFFF;" d="M280.883,144.27h-2.521v-1.414h6.623v1.414h-2.521v12.406h-1.58V144.27z"/>
			<path style="fill:#FFFFFF;" d="M287.775,152.533l-0.924,4.143h-1.518l3.158-13.82h1.744l3.074,13.82h-1.559l-0.922-4.143H287.775
				z M290.625,151.262l-0.717-3.506c-0.207-0.984-0.391-2.133-0.555-3.158h-0.082c-0.164,1.047-0.369,2.236-0.555,3.158L288,151.262
				H290.625z"/>
			<path style="fill:#FFFFFF;" d="M295.549,156.676v-13.82h1.498l2.543,6.479c0.574,1.477,1.291,3.322,1.762,4.82h0.043
				c-0.125-2.174-0.186-3.959-0.186-6.357v-4.941h1.416v13.82h-1.498l-2.625-6.645c-0.553-1.395-1.148-2.973-1.641-4.695h-0.041
				c0.123,1.846,0.164,3.609,0.164,6.562v4.777H295.549z"/>
		</g>
		<g>
			<path style="fill:#FFFFFF;" d="M86.992,161.354c-0.141,2.18-0.281,5.064-0.281,10.197v19.199c0,6.611-1.336,12.025-5.205,15.473
				c-3.797,3.234-8.93,4.219-13.994,4.219c-4.502,0-9.283-0.914-12.377-2.672l2.109-8.088c2.18,1.266,5.979,2.602,9.986,2.602
				c5.064,0,8.932-2.742,8.932-9.07v-2.252h-0.141c-2.039,2.885-5.344,4.502-9.283,4.502c-8.51,0-14.559-6.893-14.559-16.809
				c0-11.041,7.174-18.074,15.613-18.074c4.711,0,7.666,2.039,9.424,4.852h0.141l0.352-4.078H86.992z M76.021,175.35
				c0-0.703-0.07-1.408-0.211-1.971c-0.773-2.812-2.814-4.711-5.766-4.711c-3.869,0-7.035,3.516-7.035,9.775
				c0,5.133,2.533,9.143,7.035,9.143c2.742,0,4.922-1.828,5.625-4.361c0.281-0.773,0.352-1.898,0.352-2.812V175.35z"/>
			<path style="fill:#FFFFFF;" d="M101.758,181.959c0.352,4.432,4.711,6.541,9.705,6.541c3.656,0,6.611-0.492,9.494-1.406
				l1.406,7.244c-3.516,1.406-7.805,2.109-12.447,2.109c-11.676,0-18.355-6.752-18.355-17.512c0-8.721,5.414-18.355,17.369-18.355
				c11.113,0,15.332,8.65,15.332,17.16c0,1.828-0.209,3.445-0.352,4.219H101.758z M114.346,174.646c0-2.604-1.125-6.963-6.047-6.963
				c-4.502,0-6.33,4.078-6.611,6.963H114.346z"/>
			<path style="fill:#FFFFFF;" d="M162.869,178.162c0,12.588-8.932,18.355-18.145,18.355c-10.057,0-17.793-6.611-17.793-17.723
				s7.314-18.215,18.355-18.215C155.836,160.58,162.869,167.822,162.869,178.162z M137.973,178.514
				c0,5.908,2.461,10.338,7.033,10.338c4.148,0,6.822-4.148,6.822-10.338c0-5.135-1.969-10.338-6.822-10.338
				C139.871,168.176,137.973,173.449,137.973,178.514z"/>
			<path style="fill:#FFFFFF;" d="M200.771,161.354c-0.141,2.18-0.281,5.064-0.281,10.197v19.199c0,6.611-1.336,12.025-5.205,15.473
				c-3.797,3.234-8.932,4.219-13.994,4.219c-4.502,0-9.283-0.914-12.379-2.672l2.111-8.088c2.18,1.266,5.979,2.602,9.986,2.602
				c5.062,0,8.932-2.742,8.932-9.07v-2.252h-0.141c-2.039,2.885-5.346,4.502-9.283,4.502c-8.51,0-14.559-6.893-14.559-16.809
				c0-11.041,7.174-18.074,15.613-18.074c4.711,0,7.666,2.039,9.424,4.852h0.141l0.352-4.078H200.771z M189.801,175.35
				c0-0.703-0.07-1.408-0.211-1.971c-0.773-2.812-2.812-4.711-5.768-4.711c-3.869,0-7.033,3.516-7.033,9.775
				c0,5.133,2.533,9.143,7.033,9.143c2.742,0,4.924-1.828,5.627-4.361c0.281-0.773,0.352-1.898,0.352-2.812V175.35z"/>
			<path style="fill:#FFFFFF;" d="M207.309,172.676c0-5.062-0.143-8.369-0.281-11.322h9.213l0.352,6.33h0.281
				c1.758-4.994,5.977-7.104,9.283-7.104c0.984,0,1.477,0,2.25,0.141v10.057c-0.773-0.141-1.688-0.281-2.883-0.281
				c-3.939,0-6.611,2.109-7.314,5.416c-0.141,0.703-0.211,1.547-0.211,2.391v17.441h-10.689V172.676z"/>
			<path style="fill:#FFFFFF;" d="M251.051,195.744l-0.635-3.447h-0.209c-2.25,2.744-5.768,4.221-9.848,4.221
				c-6.961,0-11.111-5.064-11.111-10.549c0-8.932,8.018-13.223,20.184-13.152v-0.492c0-1.828-0.984-4.43-6.258-4.43
				c-3.518,0-7.244,1.195-9.494,2.602l-1.969-6.893c2.391-1.336,7.102-3.023,13.361-3.023c11.463,0,15.119,6.752,15.119,14.84
				v11.955c0,3.305,0.143,6.471,0.494,8.369H251.051z M249.785,179.498c-5.627-0.07-9.988,1.266-9.988,5.416
				c0,2.742,1.83,4.078,4.221,4.078c2.672,0,4.852-1.758,5.557-3.939c0.141-0.562,0.211-1.193,0.211-1.828V179.498z"/>
			<path style="fill:#FFFFFF;" d="M266.871,172.887c0-4.5-0.141-8.369-0.281-11.533h9.283l0.492,4.783h0.141
				c2.531-3.658,6.471-5.557,11.463-5.557c7.525,0,14.277,6.541,14.277,17.512c0,12.518-7.947,18.426-15.613,18.426
				c-4.148,0-7.385-1.688-8.932-3.939h-0.141v17.09h-10.689V172.887z M277.561,180.975c0,0.844,0.07,1.619,0.211,2.25
				c0.703,2.885,3.164,5.064,6.26,5.064c4.641,0,7.383-3.867,7.383-9.705c0-5.484-2.461-9.635-7.244-9.635
				c-3.023,0-5.695,2.25-6.398,5.416c-0.141,0.562-0.211,1.266-0.211,1.898V180.975z"/>
			<path style="fill:#FFFFFF;" d="M307.166,145.811h10.689v19.621h0.141c1.125-1.477,2.531-2.602,4.219-3.516
				c1.547-0.844,3.586-1.336,5.557-1.336c6.822,0,12.025,4.711,12.025,15.051v20.113h-10.689v-18.918
				c0-4.502-1.547-7.596-5.557-7.596c-2.812,0-4.57,1.828-5.344,3.727c-0.281,0.703-0.352,1.619-0.352,2.393v20.395h-10.689V145.811
				z"/>
			<path style="fill:#FFFFFF;" d="M353.297,161.354l5.133,16.879c0.562,2.039,1.266,4.57,1.689,6.4h0.211
				c0.492-1.83,1.055-4.432,1.547-6.4l4.219-16.879h11.465l-8.018,22.645c-4.924,13.645-8.229,19.131-12.098,22.576
				c-3.727,3.234-7.666,4.361-10.338,4.711l-2.25-9.07c1.336-0.213,3.023-0.844,4.641-1.83c1.619-0.844,3.377-2.531,4.432-4.289
				c0.352-0.492,0.562-1.055,0.562-1.547c0-0.352-0.07-0.914-0.492-1.76l-12.59-31.436H353.297z"/>
		</g>
	</g>
</g>
<g id="Layer_1">
</g>
</svg>
