<?xml version="1.0" encoding="utf-8"?>
<!-- Generator: Adobe Illustrator 16.0.4, SVG Export Plug-In . SVG Version: 6.00 Build 0)  -->
<!DOCTYPE svg PUBLIC "-//W3C//DTD SVG 1.1//EN" "http://www.w3.org/Graphics/SVG/1.1/DTD/svg11.dtd">
<svg version="1.1" xmlns="http://www.w3.org/2000/svg" xmlns:xlink="http://www.w3.org/1999/xlink" x="0px" y="0px" width="350px"
	 height="90px" viewBox="0 0 350 90" style="enable-background:new 0 0 350 90;" xml:space="preserve">
<g id="Layer_3">
	<g>
		<g>
			<path style="fill:#00A14B;stroke:#00A14B;stroke-width:14;stroke-miterlimit:10;" d="M35.477,24.781
				c-0.422,0.221-1.09,0.363-1.936,0.363c-2.662,0-4.559-2.139-4.559-6.758c0-5.363,2.663-7.076,4.801-7.076
				c0.825,0,1.412,0.162,1.693,0.34l-0.342,1.312c-0.323-0.143-0.667-0.283-1.371-0.283c-1.453,0-3.146,1.414-3.146,5.566
				s1.532,5.527,3.186,5.527c0.584,0,1.11-0.141,1.432-0.303L35.477,24.781z"/>
			<path style="fill:#00A14B;stroke:#00A14B;stroke-width:14;stroke-miterlimit:10;" d="M44.371,18.125
				c0,5.104-1.753,7.059-3.93,7.059c-2.261,0-3.773-2.398-3.773-6.979c0-4.496,1.613-6.936,3.994-6.936
				C42.979,11.27,44.371,13.789,44.371,18.125z M38.281,18.227c0,2.803,0.545,5.586,2.258,5.586c1.756,0,2.219-2.963,2.219-5.627
				c0-2.541-0.463-5.545-2.236-5.545C38.826,12.641,38.281,15.461,38.281,18.227z"/>
			<path style="fill:#00A14B;stroke:#00A14B;stroke-width:14;stroke-miterlimit:10;" d="M48.771,25.023L45.664,11.43h1.655
				l1.33,6.371c0.323,1.533,0.727,3.49,0.968,5.227h0.061c0.204-1.758,0.585-3.65,0.908-5.268l1.291-6.33h1.653l-3.164,13.594
				H48.771z"/>
			<path style="fill:#00A14B;stroke:#00A14B;stroke-width:14;stroke-miterlimit:10;" d="M60.508,18.568h-3.406v5.104h3.873v1.352
				h-5.427V11.43h5.184v1.352h-3.63v4.479h3.406V18.568z"/>
			<path style="fill:#00A14B;stroke:#00A14B;stroke-width:14;stroke-miterlimit:10;" d="M63.193,11.633
				c0.665-0.184,1.472-0.264,2.236-0.264c1.353,0,2.361,0.281,3.065,0.969c0.668,0.686,0.95,1.592,0.95,2.662
				c0,1.734-0.808,2.863-2.179,3.488v0.039c1.008,0.305,1.533,1.273,1.835,3.047c0.303,1.873,0.585,3.025,0.766,3.449h-1.571
				c-0.204-0.404-0.464-1.695-0.726-3.369c-0.304-1.854-0.888-2.561-2.22-2.561h-0.604v5.93h-1.553V11.633z M64.746,17.902h0.646
				c1.491,0,2.479-1.088,2.479-2.721c0-1.572-0.645-2.541-2.317-2.562c-0.305,0-0.608,0.021-0.808,0.082V17.902z"/>
			<path style="fill:#00A14B;stroke:#00A14B;stroke-width:14;stroke-miterlimit:10;" d="M73.499,11.43v13.594h-1.553V11.43H73.499z"
				/>
			<path style="fill:#00A14B;stroke:#00A14B;stroke-width:14;stroke-miterlimit:10;" d="M76.465,25.023V11.43h1.472l2.502,6.371
				c0.565,1.453,1.271,3.27,1.734,4.74h0.039c-0.121-2.137-0.18-3.893-0.18-6.252V11.43h1.391v13.594h-1.472l-2.582-6.535
				c-0.545-1.371-1.129-2.924-1.612-4.619h-0.042c0.121,1.814,0.162,3.551,0.162,6.455v4.699H76.465z"/>
			<path style="fill:#00A14B;stroke:#00A14B;stroke-width:14;stroke-miterlimit:10;" d="M93.043,24.68
				c-0.583,0.24-1.551,0.465-2.419,0.465c-1.189,0-2.298-0.324-3.206-1.332c-0.988-1.051-1.655-2.924-1.634-5.404
				c0.021-5.283,2.724-7.098,5.124-7.098c0.846,0,1.511,0.162,1.936,0.381l-0.343,1.332c-0.364-0.18-0.849-0.322-1.574-0.322
				c-1.693,0-3.529,1.354-3.529,5.566c0,4.193,1.594,5.545,3.227,5.545c0.525,0,0.827-0.102,0.948-0.162v-4.438h-1.755v-1.289h3.226
				V24.68z"/>
			<path style="fill:#00A14B;stroke:#00A14B;stroke-width:14;stroke-miterlimit:10;" d="M104.28,18.568h-3.409v5.104h3.872v1.352
				h-5.424V11.43h5.183v1.352h-3.631v4.479h3.409V18.568z"/>
			<path style="fill:#00A14B;stroke:#00A14B;stroke-width:14;stroke-miterlimit:10;" d="M109.363,25.023l-3.105-13.594h1.653
				l1.331,6.371c0.323,1.533,0.727,3.49,0.969,5.227h0.059c0.205-1.758,0.586-3.65,0.909-5.268l1.291-6.33h1.653l-3.165,13.594
				H109.363z"/>
			<path style="fill:#00A14B;stroke:#00A14B;stroke-width:14;stroke-miterlimit:10;" d="M121.103,18.568h-3.408v5.104h3.872v1.352
				h-5.425V11.43h5.183v1.352h-3.63v4.479h3.408V18.568z"/>
			<path style="fill:#00A14B;stroke:#00A14B;stroke-width:14;stroke-miterlimit:10;" d="M123.785,11.633
				c0.666-0.184,1.473-0.264,2.239-0.264c1.353,0,2.358,0.281,3.065,0.969c0.665,0.686,0.949,1.592,0.949,2.662
				c0,1.734-0.807,2.863-2.179,3.488v0.039c1.007,0.305,1.533,1.273,1.835,3.047c0.301,1.873,0.586,3.025,0.766,3.449h-1.573
				c-0.201-0.404-0.462-1.695-0.725-3.369c-0.303-1.854-0.889-2.561-2.219-2.561h-0.606v5.93h-1.553V11.633z M125.338,17.902h0.646
				c1.492,0,2.479-1.088,2.479-2.721c0-1.572-0.644-2.541-2.317-2.562c-0.302,0-0.606,0.021-0.808,0.082V17.902z"/>
			<path style="fill:#00A14B;stroke:#00A14B;stroke-width:14;stroke-miterlimit:10;" d="M134.215,25.023v-5.748l-2.985-7.846h1.634
				l1.209,3.408c0.342,0.947,0.707,2.016,1.01,3.064h0.039c0.282-1.049,0.626-2.078,0.987-3.123l1.149-3.35h1.637l-3.127,7.783
				v5.811H134.215z"/>
			<path style="fill:#00A14B;stroke:#00A14B;stroke-width:14;stroke-miterlimit:10;" d="M145.914,11.43v13.594h-1.553V11.43H145.914
				z"/>
			<path style="fill:#00A14B;stroke:#00A14B;stroke-width:14;stroke-miterlimit:10;" d="M148.879,25.023V11.43h1.472l2.501,6.371
				c0.563,1.453,1.271,3.27,1.734,4.74h0.039c-0.117-2.137-0.18-3.893-0.18-6.252V11.43h1.391v13.594h-1.472l-2.582-6.535
				c-0.545-1.371-1.13-2.924-1.613-4.619h-0.04c0.12,1.814,0.161,3.551,0.161,6.455v4.699H148.879z"/>
			<path style="fill:#00A14B;stroke:#00A14B;stroke-width:14;stroke-miterlimit:10;" d="M164.691,24.781
				c-0.422,0.221-1.088,0.363-1.936,0.363c-2.661,0-4.558-2.139-4.558-6.758c0-5.363,2.663-7.076,4.8-7.076
				c0.826,0,1.413,0.162,1.693,0.34l-0.343,1.312c-0.323-0.143-0.665-0.283-1.372-0.283c-1.452,0-3.146,1.414-3.146,5.566
				s1.532,5.527,3.188,5.527c0.584,0,1.109-0.141,1.432-0.303L164.691,24.781z"/>
			<path style="fill:#00A14B;stroke:#00A14B;stroke-width:14;stroke-miterlimit:10;" d="M168.344,11.43v5.83h3.811v-5.83h1.553
				v13.594h-1.553V18.67h-3.811v6.354h-1.554V11.43H168.344z"/>
			<path style="fill:#00A14B;stroke:#00A14B;stroke-width:14;stroke-miterlimit:10;" d="M187.445,18.125
				c0,5.104-1.756,7.059-3.934,7.059c-2.26,0-3.771-2.398-3.771-6.979c0-4.496,1.613-6.936,3.994-6.936
				C186.055,11.27,187.445,13.789,187.445,18.125z M181.354,18.227c0,2.803,0.543,5.586,2.258,5.586
				c1.756,0,2.219-2.963,2.219-5.627c0-2.541-0.463-5.545-2.24-5.545C181.896,12.641,181.354,15.461,181.354,18.227z"/>
			<path style="fill:#00A14B;stroke:#00A14B;stroke-width:14;stroke-miterlimit:10;" d="M189.805,11.43h5.186v1.352h-3.631v4.758
				h3.389v1.312h-3.389v6.172h-1.555V11.43z"/>
			<path style="fill:#00A14B;stroke:#00A14B;stroke-width:14;stroke-miterlimit:10;" d="M200.941,11.633
				c0.625-0.16,1.369-0.264,2.26-0.264c1.25,0,2.293,0.303,3.002,1.01c0.664,0.645,1.008,1.633,1.008,2.803
				c0,1.248-0.303,2.096-0.826,2.781c-0.746,1.008-1.996,1.514-3.207,1.514c-0.26,0-0.465,0-0.686-0.02v5.566h-1.551V11.633z
				 M202.492,18.146c0.182,0.039,0.344,0.059,0.607,0.059c1.533,0,2.559-1.008,2.559-2.924c0-1.391-0.584-2.641-2.299-2.641
				c-0.363,0-0.664,0.039-0.867,0.102V18.146z"/>
			<path style="fill:#00A14B;stroke:#00A14B;stroke-width:14;stroke-miterlimit:10;" d="M209.977,20.947l-0.906,4.076h-1.492
				l3.104-13.594h1.715l3.025,13.594h-1.533l-0.906-4.076H209.977z M212.777,19.697l-0.703-3.447
				c-0.203-0.969-0.383-2.1-0.545-3.105h-0.078c-0.162,1.029-0.365,2.199-0.547,3.105l-0.705,3.447H212.777z"/>
			<path style="fill:#00A14B;stroke:#00A14B;stroke-width:14;stroke-miterlimit:10;" d="M217.621,11.43h1.553v6.453h0.039
				c0.303-0.564,0.584-1.109,0.85-1.633l2.539-4.82h1.717l-3.332,5.809l3.41,7.785h-1.67l-2.785-6.555l-0.768,1.311v5.244h-1.553
				V11.43z"/>
			<path style="fill:#00A14B;stroke:#00A14B;stroke-width:14;stroke-miterlimit:10;" d="M227.828,11.43v13.594h-1.555V11.43H227.828
				z"/>
			<path style="fill:#00A14B;stroke:#00A14B;stroke-width:14;stroke-miterlimit:10;" d="M230.488,23.229
				c0.465,0.301,1.273,0.545,1.961,0.545c1.41,0,2.256-0.928,2.256-2.301c0-1.25-0.723-2.016-1.793-2.824
				c-1.07-0.746-2.562-2.016-2.562-3.77c0-2.059,1.432-3.568,3.592-3.568c0.848,0,1.59,0.26,1.914,0.502l-0.381,1.332
				c-0.346-0.244-0.91-0.465-1.615-0.465c-1.332,0-1.959,1.012-1.959,1.938c0,1.35,0.709,1.875,1.998,2.803
				c1.633,1.148,2.359,2.4,2.359,3.912c0,2.34-1.652,3.812-3.809,3.812c-0.93,0-1.92-0.307-2.301-0.584L230.488,23.229z"/>
			<path style="fill:#00A14B;stroke:#00A14B;stroke-width:14;stroke-miterlimit:10;" d="M240.172,12.82h-2.479V11.43h6.51v1.391
				h-2.477v12.203h-1.555V12.82z"/>
			<path style="fill:#00A14B;stroke:#00A14B;stroke-width:14;stroke-miterlimit:10;" d="M246.951,20.947l-0.91,4.076h-1.492
				l3.105-13.594h1.715l3.021,13.594h-1.531l-0.906-4.076H246.951z M249.752,19.697l-0.705-3.447
				c-0.203-0.969-0.383-2.1-0.545-3.105h-0.08c-0.162,1.029-0.363,2.199-0.545,3.105l-0.705,3.447H249.752z"/>
			<path style="fill:#00A14B;stroke:#00A14B;stroke-width:14;stroke-miterlimit:10;" d="M254.596,25.023V11.43h1.473l2.502,6.371
				c0.562,1.453,1.266,3.27,1.73,4.74h0.043c-0.123-2.137-0.182-3.893-0.182-6.252V11.43h1.391v13.594h-1.475l-2.58-6.535
				c-0.545-1.371-1.131-2.924-1.611-4.619h-0.041c0.119,1.814,0.162,3.551,0.162,6.455v4.699H254.596z"/>
		</g>
		<g>
			<path style="fill:#00A14B;stroke:#00A14B;stroke-width:14;stroke-miterlimit:10;" d="M49.487,29.621
				c-0.138,2.146-0.276,4.982-0.276,10.031v18.881c0,6.504-1.313,11.826-5.119,15.219C40.357,76.928,35.31,77.9,30.33,77.9
				c-4.429,0-9.131-0.902-12.173-2.629l2.073-7.953c2.145,1.242,5.881,2.555,9.822,2.555c4.98,0,8.783-2.697,8.783-8.92v-2.215
				h-0.139c-2.005,2.838-5.255,4.43-9.128,4.43c-8.37,0-14.319-6.779-14.319-16.529c0-10.859,7.056-17.777,15.355-17.777
				c4.634,0,7.54,2.006,9.269,4.773h0.138l0.346-4.014H49.487z M38.697,43.387c0-0.691-0.068-1.383-0.206-1.939
				c-0.762-2.764-2.769-4.631-5.671-4.631c-3.805,0-6.919,3.457-6.919,9.613c0,5.047,2.491,8.992,6.919,8.992
				c2.697,0,4.84-1.799,5.531-4.289c0.277-0.764,0.346-1.867,0.346-2.768V43.387z"/>
			<path style="fill:#00A14B;stroke:#00A14B;stroke-width:14;stroke-miterlimit:10;" d="M64.008,49.889
				c0.347,4.355,4.634,6.432,9.546,6.432c3.595,0,6.501-0.486,9.337-1.385l1.383,7.125c-3.457,1.385-7.676,2.076-12.241,2.076
				c-11.481,0-18.052-6.643-18.052-17.223c0-8.576,5.324-18.053,17.082-18.053c10.93,0,15.078,8.508,15.078,16.877
				c0,1.799-0.206,3.389-0.347,4.15H64.008z M76.389,42.695c0-2.561-1.106-6.848-5.946-6.848c-4.429,0-6.227,4.012-6.503,6.848
				H76.389z"/>
			<path style="fill:#00A14B;stroke:#00A14B;stroke-width:14;stroke-miterlimit:10;" d="M124.109,46.152
				c0,12.381-8.785,18.051-17.845,18.051c-9.89,0-17.498-6.5-17.498-17.428s7.193-17.914,18.052-17.914
				C117.193,28.861,124.109,35.986,124.109,46.152z M99.625,46.5c0,5.811,2.42,10.168,6.916,10.168c4.08,0,6.711-4.084,6.711-10.168
				c0-5.053-1.937-10.168-6.711-10.168C101.492,36.332,99.625,41.52,99.625,46.5z"/>
			<path style="fill:#00A14B;stroke:#00A14B;stroke-width:14;stroke-miterlimit:10;" d="M161.385,29.621
				c-0.139,2.146-0.277,4.982-0.277,10.031v18.881c0,6.504-1.314,11.826-5.118,15.219c-3.734,3.176-8.783,4.148-13.763,4.148
				c-4.427,0-9.129-0.902-12.173-2.629l2.075-7.953c2.145,1.242,5.879,2.555,9.821,2.555c4.979,0,8.784-2.697,8.784-8.92v-2.215
				h-0.139c-2.006,2.838-5.258,4.43-9.131,4.43c-8.367,0-14.316-6.779-14.316-16.529c0-10.859,7.055-17.777,15.355-17.777
				c4.633,0,7.538,2.006,9.268,4.773h0.139l0.345-4.014H161.385z M150.596,43.387c0-0.691-0.069-1.383-0.208-1.939
				c-0.76-2.764-2.767-4.631-5.673-4.631c-3.804,0-6.915,3.457-6.915,9.613c0,5.047,2.49,8.992,6.915,8.992
				c2.699,0,4.843-1.799,5.534-4.289c0.277-0.764,0.347-1.867,0.347-2.768V43.387z"/>
			<path style="fill:#00A14B;stroke:#00A14B;stroke-width:14;stroke-miterlimit:10;" d="M167.814,40.758
				c0-4.979-0.141-8.23-0.278-11.137h9.062l0.346,6.227h0.276c1.729-4.912,5.879-6.986,9.131-6.986c0.967,0,1.451,0,2.211,0.139
				v9.891c-0.76-0.139-1.66-0.275-2.834-0.275c-3.875,0-6.502,2.076-7.193,5.326c-0.141,0.691-0.207,1.521-0.207,2.35v17.154
				h-10.514V40.758z"/>
			<path style="fill:#00A14B;stroke:#00A14B;stroke-width:14;stroke-miterlimit:10;" d="M210.832,63.445l-0.623-3.393h-0.205
				c-2.215,2.703-5.674,4.15-9.684,4.15c-6.848,0-10.93-4.977-10.93-10.371c0-8.785,7.883-13.004,19.85-12.934v-0.486
				c0-1.797-0.967-4.357-6.156-4.357c-3.457,0-7.123,1.178-9.334,2.561l-1.936-6.779c2.35-1.312,6.982-2.975,13.139-2.975
				c11.273,0,14.869,6.643,14.869,14.596v11.756c0,3.25,0.139,6.363,0.484,8.232H210.832z M209.588,47.467
				c-5.533-0.07-9.822,1.242-9.822,5.328c0,2.695,1.801,4.008,4.15,4.008c2.629,0,4.771-1.727,5.467-3.875
				c0.135-0.551,0.205-1.17,0.205-1.795V47.467z"/>
			<path style="fill:#00A14B;stroke:#00A14B;stroke-width:14;stroke-miterlimit:10;" d="M226.391,40.967
				c0-4.428-0.137-8.23-0.277-11.346h9.131l0.484,4.707h0.139c2.49-3.6,6.363-5.467,11.273-5.467c7.4,0,14.039,6.434,14.039,17.223
				c0,12.311-7.814,18.119-15.352,18.119c-4.082,0-7.264-1.658-8.785-3.875h-0.141v16.809h-10.512V40.967z M236.902,48.92
				c0,0.828,0.072,1.592,0.209,2.213c0.691,2.838,3.113,4.977,6.154,4.977c4.564,0,7.262-3.799,7.262-9.541
				c0-5.393-2.418-9.475-7.125-9.475c-2.973,0-5.6,2.211-6.291,5.326c-0.137,0.555-0.209,1.244-0.209,1.869V48.92z"/>
			<path style="fill:#00A14B;stroke:#00A14B;stroke-width:14;stroke-miterlimit:10;" d="M266.02,14.336h10.514v19.299h0.139
				c1.104-1.453,2.49-2.561,4.148-3.459c1.52-0.828,3.527-1.314,5.465-1.314c6.707,0,11.824,4.635,11.824,14.803v19.781H287.6
				V44.838c0-4.426-1.521-7.469-5.467-7.469c-2.766,0-4.492,1.799-5.254,3.666c-0.277,0.691-0.346,1.594-0.346,2.352v20.059H266.02
				V14.336z"/>
			<path style="fill:#00A14B;stroke:#00A14B;stroke-width:14;stroke-miterlimit:10;" d="M311.389,29.621l5.045,16.602
				c0.553,2.008,1.246,4.494,1.664,6.293h0.205c0.486-1.799,1.039-4.354,1.523-6.293l4.15-16.602h11.273l-7.885,22.27
				c-4.844,13.424-8.094,18.816-11.898,22.205c-3.666,3.18-7.539,4.291-10.168,4.635l-2.211-8.924
				c1.314-0.207,2.973-0.826,4.564-1.795c1.59-0.836,3.322-2.492,4.357-4.219c0.346-0.49,0.553-1.037,0.553-1.523
				c0-0.348-0.07-0.9-0.484-1.73l-12.379-30.918H311.389z"/>
		</g>
	</g>
</g>
<g id="Layer_3_copy">
	<g>
		<g>
			<path style="fill:#FFFFFF;" d="M35.477,24.781c-0.422,0.221-1.09,0.363-1.936,0.363c-2.662,0-4.559-2.139-4.559-6.758
				c0-5.363,2.663-7.076,4.801-7.076c0.825,0,1.412,0.162,1.693,0.34l-0.342,1.312c-0.323-0.143-0.667-0.283-1.371-0.283
				c-1.453,0-3.146,1.414-3.146,5.566s1.532,5.527,3.186,5.527c0.584,0,1.11-0.141,1.432-0.303L35.477,24.781z"/>
			<path style="fill:#FFFFFF;" d="M44.371,18.125c0,5.104-1.753,7.059-3.93,7.059c-2.261,0-3.773-2.398-3.773-6.979
				c0-4.496,1.613-6.936,3.994-6.936C42.979,11.27,44.371,13.789,44.371,18.125z M38.281,18.227c0,2.803,0.545,5.586,2.258,5.586
				c1.756,0,2.219-2.963,2.219-5.627c0-2.541-0.463-5.545-2.236-5.545C38.826,12.641,38.281,15.461,38.281,18.227z"/>
			<path style="fill:#FFFFFF;" d="M48.771,25.023L45.664,11.43h1.655l1.33,6.371c0.323,1.533,0.727,3.49,0.968,5.227h0.061
				c0.204-1.758,0.585-3.65,0.908-5.268l1.291-6.33h1.653l-3.164,13.594H48.771z"/>
			<path style="fill:#FFFFFF;" d="M60.508,18.568h-3.406v5.104h3.873v1.352h-5.427V11.43h5.184v1.352h-3.63v4.479h3.406V18.568z"/>
			<path style="fill:#FFFFFF;" d="M63.193,11.633c0.665-0.184,1.472-0.264,2.236-0.264c1.353,0,2.361,0.281,3.065,0.969
				c0.668,0.686,0.95,1.592,0.95,2.662c0,1.734-0.808,2.863-2.179,3.488v0.039c1.008,0.305,1.533,1.273,1.835,3.047
				c0.303,1.873,0.585,3.025,0.766,3.449h-1.571c-0.204-0.404-0.464-1.695-0.726-3.369c-0.304-1.854-0.888-2.561-2.22-2.561h-0.604
				v5.93h-1.553V11.633z M64.746,17.902h0.646c1.491,0,2.479-1.088,2.479-2.721c0-1.572-0.645-2.541-2.317-2.562
				c-0.305,0-0.608,0.021-0.808,0.082V17.902z"/>
			<path style="fill:#FFFFFF;" d="M73.499,11.43v13.594h-1.553V11.43H73.499z"/>
			<path style="fill:#FFFFFF;" d="M76.465,25.023V11.43h1.472l2.502,6.371c0.565,1.453,1.271,3.27,1.734,4.74h0.039
				c-0.121-2.137-0.18-3.893-0.18-6.252V11.43h1.391v13.594h-1.472l-2.582-6.535c-0.545-1.371-1.129-2.924-1.612-4.619h-0.042
				c0.121,1.814,0.162,3.551,0.162,6.455v4.699H76.465z"/>
			<path style="fill:#FFFFFF;" d="M93.043,24.68c-0.583,0.24-1.551,0.465-2.419,0.465c-1.189,0-2.298-0.324-3.206-1.332
				c-0.988-1.051-1.655-2.924-1.634-5.404c0.021-5.283,2.724-7.098,5.124-7.098c0.846,0,1.511,0.162,1.936,0.381l-0.343,1.332
				c-0.364-0.18-0.849-0.322-1.574-0.322c-1.693,0-3.529,1.354-3.529,5.566c0,4.193,1.594,5.545,3.227,5.545
				c0.525,0,0.827-0.102,0.948-0.162v-4.438h-1.755v-1.289h3.226V24.68z"/>
			<path style="fill:#FFFFFF;" d="M104.28,18.568h-3.409v5.104h3.872v1.352h-5.424V11.43h5.183v1.352h-3.631v4.479h3.409V18.568z"/>
			<path style="fill:#FFFFFF;" d="M109.363,25.023l-3.105-13.594h1.653l1.331,6.371c0.323,1.533,0.727,3.49,0.969,5.227h0.059
				c0.205-1.758,0.586-3.65,0.909-5.268l1.291-6.33h1.653l-3.165,13.594H109.363z"/>
			<path style="fill:#FFFFFF;" d="M121.103,18.568h-3.408v5.104h3.872v1.352h-5.425V11.43h5.183v1.352h-3.63v4.479h3.408V18.568z"/>
			<path style="fill:#FFFFFF;" d="M123.785,11.633c0.666-0.184,1.473-0.264,2.239-0.264c1.353,0,2.358,0.281,3.065,0.969
				c0.665,0.686,0.949,1.592,0.949,2.662c0,1.734-0.807,2.863-2.179,3.488v0.039c1.007,0.305,1.533,1.273,1.835,3.047
				c0.301,1.873,0.586,3.025,0.766,3.449h-1.573c-0.201-0.404-0.462-1.695-0.725-3.369c-0.303-1.854-0.889-2.561-2.219-2.561h-0.606
				v5.93h-1.553V11.633z M125.338,17.902h0.646c1.492,0,2.479-1.088,2.479-2.721c0-1.572-0.644-2.541-2.317-2.562
				c-0.302,0-0.606,0.021-0.808,0.082V17.902z"/>
			<path style="fill:#FFFFFF;" d="M134.215,25.023v-5.748l-2.985-7.846h1.634l1.209,3.408c0.342,0.947,0.707,2.016,1.01,3.064h0.039
				c0.282-1.049,0.626-2.078,0.987-3.123l1.149-3.35h1.637l-3.127,7.783v5.811H134.215z"/>
			<path style="fill:#FFFFFF;" d="M145.914,11.43v13.594h-1.553V11.43H145.914z"/>
			<path style="fill:#FFFFFF;" d="M148.879,25.023V11.43h1.472l2.501,6.371c0.563,1.453,1.271,3.27,1.734,4.74h0.039
				c-0.117-2.137-0.18-3.893-0.18-6.252V11.43h1.391v13.594h-1.472l-2.582-6.535c-0.545-1.371-1.13-2.924-1.613-4.619h-0.04
				c0.12,1.814,0.161,3.551,0.161,6.455v4.699H148.879z"/>
			<path style="fill:#FFFFFF;" d="M164.691,24.781c-0.422,0.221-1.088,0.363-1.936,0.363c-2.661,0-4.558-2.139-4.558-6.758
				c0-5.363,2.663-7.076,4.8-7.076c0.826,0,1.413,0.162,1.693,0.34l-0.343,1.312c-0.323-0.143-0.665-0.283-1.372-0.283
				c-1.452,0-3.146,1.414-3.146,5.566s1.532,5.527,3.188,5.527c0.584,0,1.109-0.141,1.432-0.303L164.691,24.781z"/>
			<path style="fill:#FFFFFF;" d="M168.344,11.43v5.83h3.811v-5.83h1.553v13.594h-1.553V18.67h-3.811v6.354h-1.554V11.43H168.344z"
				/>
			<path style="fill:#FFFFFF;" d="M187.445,18.125c0,5.104-1.756,7.059-3.934,7.059c-2.26,0-3.771-2.398-3.771-6.979
				c0-4.496,1.613-6.936,3.994-6.936C186.055,11.27,187.445,13.789,187.445,18.125z M181.354,18.227
				c0,2.803,0.543,5.586,2.258,5.586c1.756,0,2.219-2.963,2.219-5.627c0-2.541-0.463-5.545-2.24-5.545
				C181.896,12.641,181.354,15.461,181.354,18.227z"/>
			<path style="fill:#FFFFFF;" d="M189.805,11.43h5.186v1.352h-3.631v4.758h3.389v1.312h-3.389v6.172h-1.555V11.43z"/>
			<path style="fill:#FFFFFF;" d="M200.941,11.633c0.625-0.16,1.369-0.264,2.26-0.264c1.25,0,2.293,0.303,3.002,1.01
				c0.664,0.645,1.008,1.633,1.008,2.803c0,1.248-0.303,2.096-0.826,2.781c-0.746,1.008-1.996,1.514-3.207,1.514
				c-0.26,0-0.465,0-0.686-0.02v5.566h-1.551V11.633z M202.492,18.146c0.182,0.039,0.344,0.059,0.607,0.059
				c1.533,0,2.559-1.008,2.559-2.924c0-1.391-0.584-2.641-2.299-2.641c-0.363,0-0.664,0.039-0.867,0.102V18.146z"/>
			<path style="fill:#FFFFFF;" d="M209.977,20.947l-0.906,4.076h-1.492l3.104-13.594h1.715l3.025,13.594h-1.533l-0.906-4.076
				H209.977z M212.777,19.697l-0.703-3.447c-0.203-0.969-0.383-2.1-0.545-3.105h-0.078c-0.162,1.029-0.365,2.199-0.547,3.105
				l-0.705,3.447H212.777z"/>
			<path style="fill:#FFFFFF;" d="M217.621,11.43h1.553v6.453h0.039c0.303-0.564,0.584-1.109,0.85-1.633l2.539-4.82h1.717
				l-3.332,5.809l3.41,7.785h-1.67l-2.785-6.555l-0.768,1.311v5.244h-1.553V11.43z"/>
			<path style="fill:#FFFFFF;" d="M227.828,11.43v13.594h-1.555V11.43H227.828z"/>
			<path style="fill:#FFFFFF;" d="M230.488,23.229c0.465,0.301,1.273,0.545,1.961,0.545c1.41,0,2.256-0.928,2.256-2.301
				c0-1.25-0.723-2.016-1.793-2.824c-1.07-0.746-2.562-2.016-2.562-3.77c0-2.059,1.432-3.568,3.592-3.568
				c0.848,0,1.59,0.26,1.914,0.502l-0.381,1.332c-0.346-0.244-0.91-0.465-1.615-0.465c-1.332,0-1.959,1.012-1.959,1.938
				c0,1.35,0.709,1.875,1.998,2.803c1.633,1.148,2.359,2.4,2.359,3.912c0,2.34-1.652,3.812-3.809,3.812
				c-0.93,0-1.92-0.307-2.301-0.584L230.488,23.229z"/>
			<path style="fill:#FFFFFF;" d="M240.172,12.82h-2.479V11.43h6.51v1.391h-2.477v12.203h-1.555V12.82z"/>
			<path style="fill:#FFFFFF;" d="M246.951,20.947l-0.91,4.076h-1.492l3.105-13.594h1.715l3.021,13.594h-1.531l-0.906-4.076H246.951
				z M249.752,19.697l-0.705-3.447c-0.203-0.969-0.383-2.1-0.545-3.105h-0.08c-0.162,1.029-0.363,2.199-0.545,3.105l-0.705,3.447
				H249.752z"/>
			<path style="fill:#FFFFFF;" d="M254.596,25.023V11.43h1.473l2.502,6.371c0.562,1.453,1.266,3.27,1.73,4.74h0.043
				c-0.123-2.137-0.182-3.893-0.182-6.252V11.43h1.391v13.594h-1.475l-2.58-6.535c-0.545-1.371-1.131-2.924-1.611-4.619h-0.041
				c0.119,1.814,0.162,3.551,0.162,6.455v4.699H254.596z"/>
		</g>
		<g>
			<path style="fill:#FFFFFF;" d="M49.487,29.621c-0.138,2.146-0.276,4.982-0.276,10.031v18.881c0,6.504-1.313,11.826-5.119,15.219
				C40.357,76.928,35.31,77.9,30.33,77.9c-4.429,0-9.131-0.902-12.173-2.629l2.073-7.953c2.145,1.242,5.881,2.555,9.822,2.555
				c4.98,0,8.783-2.697,8.783-8.92v-2.215h-0.139c-2.005,2.838-5.255,4.43-9.128,4.43c-8.37,0-14.319-6.779-14.319-16.529
				c0-10.859,7.056-17.777,15.355-17.777c4.634,0,7.54,2.006,9.269,4.773h0.138l0.346-4.014H49.487z M38.697,43.387
				c0-0.691-0.068-1.383-0.206-1.939c-0.762-2.764-2.769-4.631-5.671-4.631c-3.805,0-6.919,3.457-6.919,9.613
				c0,5.047,2.491,8.992,6.919,8.992c2.697,0,4.84-1.799,5.531-4.289c0.277-0.764,0.346-1.867,0.346-2.768V43.387z"/>
			<path style="fill:#FFFFFF;" d="M64.008,49.889c0.347,4.355,4.634,6.432,9.546,6.432c3.595,0,6.501-0.486,9.337-1.385l1.383,7.125
				c-3.457,1.385-7.676,2.076-12.241,2.076c-11.481,0-18.052-6.643-18.052-17.223c0-8.576,5.324-18.053,17.082-18.053
				c10.93,0,15.078,8.508,15.078,16.877c0,1.799-0.206,3.389-0.347,4.15H64.008z M76.389,42.695c0-2.561-1.106-6.848-5.946-6.848
				c-4.429,0-6.227,4.012-6.503,6.848H76.389z"/>
			<path style="fill:#FFFFFF;" d="M124.109,46.152c0,12.381-8.785,18.051-17.845,18.051c-9.89,0-17.498-6.5-17.498-17.428
				s7.193-17.914,18.052-17.914C117.193,28.861,124.109,35.986,124.109,46.152z M99.625,46.5c0,5.811,2.42,10.168,6.916,10.168
				c4.08,0,6.711-4.084,6.711-10.168c0-5.053-1.937-10.168-6.711-10.168C101.492,36.332,99.625,41.52,99.625,46.5z"/>
			<path style="fill:#FFFFFF;" d="M161.385,29.621c-0.139,2.146-0.277,4.982-0.277,10.031v18.881c0,6.504-1.314,11.826-5.118,15.219
				c-3.734,3.176-8.783,4.148-13.763,4.148c-4.427,0-9.129-0.902-12.173-2.629l2.075-7.953c2.145,1.242,5.879,2.555,9.821,2.555
				c4.979,0,8.784-2.697,8.784-8.92v-2.215h-0.139c-2.006,2.838-5.258,4.43-9.131,4.43c-8.367,0-14.316-6.779-14.316-16.529
				c0-10.859,7.055-17.777,15.355-17.777c4.633,0,7.538,2.006,9.268,4.773h0.139l0.345-4.014H161.385z M150.596,43.387
				c0-0.691-0.069-1.383-0.208-1.939c-0.76-2.764-2.767-4.631-5.673-4.631c-3.804,0-6.915,3.457-6.915,9.613
				c0,5.047,2.49,8.992,6.915,8.992c2.699,0,4.843-1.799,5.534-4.289c0.277-0.764,0.347-1.867,0.347-2.768V43.387z"/>
			<path style="fill:#FFFFFF;" d="M167.814,40.758c0-4.979-0.141-8.23-0.278-11.137h9.062l0.346,6.227h0.276
				c1.729-4.912,5.879-6.986,9.131-6.986c0.967,0,1.451,0,2.211,0.139v9.891c-0.76-0.139-1.66-0.275-2.834-0.275
				c-3.875,0-6.502,2.076-7.193,5.326c-0.141,0.691-0.207,1.521-0.207,2.35v17.154h-10.514V40.758z"/>
			<path style="fill:#FFFFFF;" d="M210.832,63.445l-0.623-3.393h-0.205c-2.215,2.703-5.674,4.15-9.684,4.15
				c-6.848,0-10.93-4.977-10.93-10.371c0-8.785,7.883-13.004,19.85-12.934v-0.486c0-1.797-0.967-4.357-6.156-4.357
				c-3.457,0-7.123,1.178-9.334,2.561l-1.936-6.779c2.35-1.312,6.982-2.975,13.139-2.975c11.273,0,14.869,6.643,14.869,14.596
				v11.756c0,3.25,0.139,6.363,0.484,8.232H210.832z M209.588,47.467c-5.533-0.07-9.822,1.242-9.822,5.328
				c0,2.695,1.801,4.008,4.15,4.008c2.629,0,4.771-1.727,5.467-3.875c0.135-0.551,0.205-1.17,0.205-1.795V47.467z"/>
			<path style="fill:#FFFFFF;" d="M226.391,40.967c0-4.428-0.137-8.23-0.277-11.346h9.131l0.484,4.707h0.139
				c2.49-3.6,6.363-5.467,11.273-5.467c7.4,0,14.039,6.434,14.039,17.223c0,12.311-7.814,18.119-15.352,18.119
				c-4.082,0-7.264-1.658-8.785-3.875h-0.141v16.809h-10.512V40.967z M236.902,48.92c0,0.828,0.072,1.592,0.209,2.213
				c0.691,2.838,3.113,4.977,6.154,4.977c4.564,0,7.262-3.799,7.262-9.541c0-5.393-2.418-9.475-7.125-9.475
				c-2.973,0-5.6,2.211-6.291,5.326c-0.137,0.555-0.209,1.244-0.209,1.869V48.92z"/>
			<path style="fill:#FFFFFF;" d="M266.02,14.336h10.514v19.299h0.139c1.104-1.453,2.49-2.561,4.148-3.459
				c1.52-0.828,3.527-1.314,5.465-1.314c6.707,0,11.824,4.635,11.824,14.803v19.781H287.6V44.838c0-4.426-1.521-7.469-5.467-7.469
				c-2.766,0-4.492,1.799-5.254,3.666c-0.277,0.691-0.346,1.594-0.346,2.352v20.059H266.02V14.336z"/>
			<path style="fill:#FFFFFF;" d="M311.389,29.621l5.045,16.602c0.553,2.008,1.246,4.494,1.664,6.293h0.205
				c0.486-1.799,1.039-4.354,1.523-6.293l4.15-16.602h11.273l-7.885,22.27c-4.844,13.424-8.094,18.816-11.898,22.205
				c-3.666,3.18-7.539,4.291-10.168,4.635l-2.211-8.924c1.314-0.207,2.973-0.826,4.564-1.795c1.59-0.836,3.322-2.492,4.357-4.219
				c0.346-0.49,0.553-1.037,0.553-1.523c0-0.348-0.07-0.9-0.484-1.73l-12.379-30.918H311.389z"/>
		</g>
	</g>
</g>
</svg>
